HIERARCHY
ROOT Hips
{
	OFFSET -14.64140 90.27770 -84.91600
	CHANNELS 6 Xposition Yposition Zposition Zrotation Xrotation Yrotation
	JOINT Spine
	{
		OFFSET 0.00000 13.20850 -1.60436
		CHANNELS 3 Zrotation Xrotation Yrotation
		JOINT Spine1
		{
			OFFSET 0.00000 8.61716 0.00000
			CHANNELS 3 Zrotation Xrotation Yrotation
			JOINT Spine2
			{
				OFFSET 0.00000 8.61717 0.00000
				CHANNELS 3 Zrotation Xrotation Yrotation
				JOINT Spine3
				{
					OFFSET 0.00000 8.61717 0.00000
					CHANNELS 3 Zrotation Xrotation Yrotation
					JOINT Neck
					{
						OFFSET 0.00000 11.07920 1.10792
						CHANNELS 3 Zrotation Xrotation Yrotation
						JOINT Neck1
						{
							OFFSET 0.00000 7.08032 0.00000
							CHANNELS 3 Zrotation Xrotation Yrotation
							JOINT Head
							{
								OFFSET 0.00000 7.08031 0.00000
								CHANNELS 3 Zrotation Xrotation Yrotation
								End site
								{
									OFFSET 0.00000 0.00000 0.00000
								}
							}
						}
					}
					JOINT RightShoulder
					{
						OFFSET -0.01000 7.91373 5.19711
						CHANNELS 3 Zrotation Xrotation Yrotation
						JOINT RightArm
						{
							OFFSET -18.41580 0.00000 0.00000
							CHANNELS 3 Zrotation Xrotation Yrotation
							JOINT RightForeArm
							{
								OFFSET -29.11090 0.00000 0.00000
								CHANNELS 3 Zrotation Xrotation Yrotation
								JOINT RightHand
								{
									OFFSET -24.65040 0.00000 0.00000
									CHANNELS 3 Zrotation Xrotation Yrotation
									JOINT RightHandThumb1
									{
										OFFSET -5.35114 -0.85590 3.97906
										CHANNELS 3 Zrotation Xrotation Yrotation
										JOINT RightHandThumb2
										{
											OFFSET -4.52789 0.00000 0.00000
											CHANNELS 3 Zrotation Xrotation Yrotation
											JOINT RightHandThumb3
											{
												OFFSET -2.46976 0.00000 0.00000
												CHANNELS 3 Zrotation Xrotation Yrotation
												End site
												{
													OFFSET 0.00000 0.00000 0.00000
												}
											}
										}
									}
									JOINT RightHandIndex1
									{
										OFFSET -14.26970 0.00000 2.88139
										CHANNELS 3 Zrotation Xrotation Yrotation
										JOINT RightHandIndex2
										{
											OFFSET -5.48836 0.00000 0.00000
											CHANNELS 3 Zrotation Xrotation Yrotation
											JOINT RightHandIndex3
											{
												OFFSET -3.01859 0.00000 0.00000
												CHANNELS 3 Zrotation Xrotation Yrotation
												End site
												{
													OFFSET 0.00000 0.00000 0.00000
												}
											}
										}
									}
									JOINT RightHandMiddle1
									{
										OFFSET -14.26970 0.00000 -0.09147
										CHANNELS 3 Zrotation Xrotation Yrotation
										JOINT RightHandMiddle2
										{
											OFFSET -6.17441 0.00000 0.00000
											CHANNELS 3 Zrotation Xrotation Yrotation
											JOINT RightHandMiddle3
											{
												OFFSET -3.56743 0.00000 0.00000
												CHANNELS 3 Zrotation Xrotation Yrotation
												End site
												{
													OFFSET 0.00000 0.00000 0.00000
												}
											}
										}
									}
									JOINT RightHandRing1
									{
										OFFSET -12.69180 0.00000 -3.06433
										CHANNELS 3 Zrotation Xrotation Yrotation
										JOINT RightHandRing2
										{
											OFFSET -5.62556 0.00000 0.00000
											CHANNELS 3 Zrotation Xrotation Yrotation
											JOINT RightHandRing3
											{
												OFFSET -3.56744 0.00000 0.00000
												CHANNELS 3 Zrotation Xrotation Yrotation
												End site
												{
													OFFSET 0.00000 0.00000 0.00000
												}
											}
										}
									}
									JOINT RightHandPinky1
									{
										OFFSET -11.11390 0.00000 -6.03719
										CHANNELS 3 Zrotation Xrotation Yrotation
										JOINT RightHandPinky2
										{
											OFFSET -4.52789 0.00000 0.00000
											CHANNELS 3 Zrotation Xrotation Yrotation
											JOINT RightHandPinky3
											{
												OFFSET -2.46976 0.00000 0.00000
												CHANNELS 3 Zrotation Xrotation Yrotation
												End site
												{
													OFFSET 0.00000 0.00000 0.00000
												}
											}
										}
									}
								}
							}
						}
					}
					JOINT LeftShoulder
					{
						OFFSET 0.01000 7.91373 5.19711
						CHANNELS 3 Zrotation Xrotation Yrotation
						JOINT LeftArm
						{
							OFFSET 18.41580 0.00000 0.00000
							CHANNELS 3 Zrotation Xrotation Yrotation
							JOINT LeftForeArm
							{
								OFFSET 29.11090 0.00000 0.00000
								CHANNELS 3 Zrotation Xrotation Yrotation
								JOINT LeftHand
								{
									OFFSET 24.65040 0.00000 0.00000
									CHANNELS 3 Zrotation Xrotation Yrotation
									JOINT LeftHandThumb1
									{
										OFFSET 5.35114 -0.85590 3.97906
										CHANNELS 3 Zrotation Xrotation Yrotation
										JOINT LeftHandThumb2
										{
											OFFSET 4.52789 0.00000 0.00000
											CHANNELS 3 Zrotation Xrotation Yrotation
											JOINT LeftHandThumb3
											{
												OFFSET 2.46977 0.00000 0.00000
												CHANNELS 3 Zrotation Xrotation Yrotation
												End site
												{
													OFFSET 0.00000 0.00000 0.00000
												}
											}
										}
									}
									JOINT LeftHandIndex1
									{
										OFFSET 14.26970 0.00000 2.88139
										CHANNELS 3 Zrotation Xrotation Yrotation
										JOINT LeftHandIndex2
										{
											OFFSET 5.48836 0.00000 0.00000
											CHANNELS 3 Zrotation Xrotation Yrotation
											JOINT LeftHandIndex3
											{
												OFFSET 3.01859 0.00000 0.00000
												CHANNELS 3 Zrotation Xrotation Yrotation
												End site
												{
													OFFSET 0.00000 0.00000 0.00000
												}
											}
										}
									}
									JOINT LeftHandMiddle1
									{
										OFFSET 14.26970 0.00000 -0.09147
										CHANNELS 3 Zrotation Xrotation Yrotation
										JOINT LeftHandMiddle2
										{
											OFFSET 6.17440 0.00000 0.00000
											CHANNELS 3 Zrotation Xrotation Yrotation
											JOINT LeftHandMiddle3
											{
												OFFSET 3.56744 0.00000 0.00000
												CHANNELS 3 Zrotation Xrotation Yrotation
												End site
												{
													OFFSET 0.00000 0.00000 0.00000
												}
											}
										}
									}
									JOINT LeftHandRing1
									{
										OFFSET 12.69180 0.00000 -3.06433
										CHANNELS 3 Zrotation Xrotation Yrotation
										JOINT LeftHandRing2
										{
											OFFSET 5.62556 0.00000 0.00000
											CHANNELS 3 Zrotation Xrotation Yrotation
											JOINT LeftHandRing3
											{
												OFFSET 3.56744 0.00000 0.00000
												CHANNELS 3 Zrotation Xrotation Yrotation
												End site
												{
													OFFSET 0.00000 0.00000 0.00000
												}
											}
										}
									}
									JOINT LeftHandPinky1
									{
										OFFSET 11.11390 0.00000 -6.03719
										CHANNELS 3 Zrotation Xrotation Yrotation
										JOINT LeftHandPinky2
										{
											OFFSET 4.52789 0.00000 0.00000
											CHANNELS 3 Zrotation Xrotation Yrotation
											JOINT LeftHandPinky3
											{
												OFFSET 2.46976 0.00000 0.00000
												CHANNELS 3 Zrotation Xrotation Yrotation
												End site
												{
													OFFSET 0.00000 0.00000 0.00000
												}
											}
										}
									}
								}
							}
						}
					}
					JOINT pCube4
					{
						OFFSET 0.00000 10.91090 1.10792
						CHANNELS 3 Zrotation Xrotation Yrotation
						End site
						{
							OFFSET 0.00000 0.00000 0.00000
						}
					}
				}
			}
		}
	}
	JOINT RightUpLeg
	{
		OFFSET -9.98441 0.00000 0.00000
		CHANNELS 3 Zrotation Xrotation Yrotation
		JOINT RightLeg
		{
			OFFSET 0.00000 -42.11790 0.00000
			CHANNELS 3 Zrotation Xrotation Yrotation
			JOINT RightFoot
			{
				OFFSET 0.00000 -45.00020 -0.00001
				CHANNELS 3 Zrotation Xrotation Yrotation
				JOINT RightForeFoot
				{
					OFFSET 0.00000 -3.74820 0.00000
					CHANNELS 3 Zrotation Xrotation Yrotation
					JOINT RightToeBase
					{
						OFFSET 0.00000 0.06325 14.43120
						CHANNELS 3 Zrotation Xrotation Yrotation
						End site
						{
							OFFSET 0.00000 0.00000 0.00000
						}
					}
				}
			}
		}
	}
	JOINT LeftUpLeg
	{
		OFFSET 9.98441 0.00000 0.00000
		CHANNELS 3 Zrotation Xrotation Yrotation
		JOINT LeftLeg
		{
			OFFSET 0.00000 -42.11800 0.00000
			CHANNELS 3 Zrotation Xrotation Yrotation
			JOINT LeftFoot
			{
				OFFSET 0.00000 -45.00070 0.00000
				CHANNELS 3 Zrotation Xrotation Yrotation
				JOINT LeftForeFoot
				{
					OFFSET 0.00000 -3.74824 0.00000
					CHANNELS 3 Zrotation Xrotation Yrotation
					JOINT LeftToeBase
					{
						OFFSET 0.00000 0.06325 14.43110
						CHANNELS 3 Zrotation Xrotation Yrotation
						End site
						{
							OFFSET 0.00000 0.00000 0.00000
						}
					}
				}
			}
		}
	}
}
MOTION
Frames: 4
Frame Time: 0.050000
-0.03142398190455544 -0.020767017092606258 0.026133587707174406 -0.021469200738964783 0.019387179018956733 0.011305826812436845 -2.807814136192965 0.4964895776642728 -0.8315225242560429 -1.0007078812278312 3.5035915241575117 0.36271047184701855 -0.8978361048331497 -2.070677736101901 -2.546914398715384 -0.8645723603483457 0.27902095640728775 -1.0328324666288147 -2.2516718429022093 12.343530823271406 5.98254321689972 -0.1243520731602903 0.11460717270907261 13.440781181251495 -1.8563465994103168 -14.580651740557517 1.1305783672022374 -2.79611693718698 1.4454831543501503 -13.485581865344058 69.89175095341102 28.831562709739107 0.24826208238197625 8.1411328180821 -0.9451543112053588 84.46179005252544 17.93794210788775 -0.4732151504347391 -3.9575848448434163 4.531574979839778 -0.12659451840169617 -1.5909333726664974 0.01950009457119736 -0.013219549256107868 -56.228030270432036 0.029438243406993882 -0.0327178688045984 -56.234350868513985 -38.72046696954202 0.015669726485969482 0.019173237799027902 -0.027953479961457844 -0.019392967582348805 0.024490279913837253 -0.03223670986560029 -0.013261199617711873 0.03265927120955295 -36.70185218381772 0.033783098005743924 -0.025178835306190583 -0.03888768304023231 -0.04045542224279043 -0.005532146911948845 0.002917480145827051 -0.04119214588798846 0.04965446850511979 -19.779318655683966 -0.01752738732742166 0.04085315849732293 -0.03306628089103775 -0.032060985843563344 -0.007907784287112134 -0.03162494159659624 -0.010054595268643718 -0.04457567350499968 24.03461332449786 0.04608710282084866 -5.705705015988881e-05 28.90296673953713 0.019823480949722867 0.013956867751228728 28.88122788337138 -0.01429812494985612 -0.04187265880316118 9.786003953151825 2.0684903433591892 12.391021941338074 -69.07613349374371 15.79752116900574 -23.035129410379298 -20.384110402397006 -12.307099127825618 -77.71256165778186 -5.906661125231979 -2.906583546802663 0.2004944121192126 -0.5236777037690519 0.06420259748008011 -8.136221019620507 0.017235279511336934 0.04025710830317915 44.57712379457129 0.004141809654564671 0.047991266838127454 44.555957483763194 12.419647464131197 0.006807287760758043 -0.03481272657915793 -0.016548136419459764 -0.003068507835150948 -0.011067999769979657 -0.027026054844415327 0.01912222665025527 -0.006019377032754645 11.134116093903863 0.012141478197195 0.008890982541912718 -0.004011213804389954 0.00567365248086124 -0.046265873856493625 -0.00869880280642274 -0.00012501430971089778 -0.0497913981503537 4.727984420960654 0.009025017191580482 -0.0012873410712863319 -0.02673784894576631 0.012737364376367251 0.017881593250888502 0.03633953219811093 -0.04602357958670291 -0.024902023038575628 -5.568736736936611 -0.009028147949870502 0.04753457091803365 -6.698143961497073 0.02928547287107535 0.03919076219523485 -6.703107131546497 0.04299840350040702 -0.045298543039608015 -0.013934740582647362 0.0460707294624191 -0.017957812325760436 8.006386374719144 3.5119317369467873 -19.23192668044779 0.043444422805194206 10.421834319130271 0.04604131278252874 -5.667842059991969 -15.692009234432964 3.233949006300722 -0.0011319424909673136 0.02246471542252474 -0.00387491166791519 0.002860064520296464 4.740426825135513 -0.004155807327256081 12.482998715496606 -8.223895557166644 6.869146681324814 -0.013379876983822914 46.39379891572274 -0.013507170290543097 -4.313607995977307 -14.733396803825014 -3.8517846595526772 -0.02831909868504442 0.002107498246540634 0.01922490779079753 -0.03837677987017065 -10.79114473121502 0.04740838342125594 
-0.02145725311370202 0.03198610005840357 -0.04949812478202468 -0.016778577206948656 -0.01438455909466819 -0.00034993202137054814 -2.694327685707885 0.47044946971499196 -0.7471441424370979 -1.0300845359074595 3.4625966812930113 0.2997191217418344 -0.9407143309211106 -1.9936483990624214 -2.735933563887326 -0.7712622498942419 0.33130622913162305 -0.9926839696682792 -2.305205431991512 12.310569989816022 5.92750837204437 -0.11553960924683229 0.0705616175911063 13.350868794727983 -1.9198879987318527 -14.59039267758507 1.1290486535030775 -2.76660674088478 1.4924808404063685 -13.396058229956113 69.83102978058923 28.365137491729264 0.7000976945514781 8.994602704649047 -0.5354964009762716 83.3522447132333 18.023448233729763 -0.41030873253056993 -4.0371523175755835 4.5072564702235836 -0.12272929825686585 -1.5827729974058453 0.0397944708807455 -0.03348036255639216 -56.20787282127128 -0.015936445027949084 -0.024281392715705938 -56.246737521702094 -38.81010038017512 -0.03952638670725031 -0.01399188718079803 -0.03572901299814282 0.02490005887794284 0.03973216023386458 0.042727415674062144 0.005738597957014527 -0.003338606148735024 -36.67510149211552 -0.03715490900137475 -0.038723893316494416 0.04219703853240383 -0.03925813121992671 0.020566087224296474 -0.018028562036830932 -0.024697795195666682 0.033806285134752534 -19.710659374946694 0.016232429695127084 0.029511026456041277 0.04953401886068888 -0.012082642693703636 0.03487401659690134 0.04014900973563409 -0.005420328006189745 -0.0005760182788777498 24.057829215416234 -0.04525611998901363 0.04970979834322794 28.86641002184726 -0.020203832964807395 -0.0076794160114063035 28.89805287794881 0.04104530318413413 0.013650729483242186 9.994828093290538 2.124363966277824 12.155564371065337 -68.26136726555032 15.500634474105365 -24.588888605856926 -17.207547047470555 -13.212460802334308 -76.95066109798007 -5.792945791269635 -2.8139075299924867 0.5446198767214587 -0.44747952244361205 0.052658133697114036 -8.105269910790232 0.04994507091598454 0.015211642533683796 44.57383662942942 0.049177057414135555 -0.03511286762097504 44.51872965798987 12.46732426497694 -0.004244395295571492 0.010232149614912036 -0.004263611020510994 0.02905727654650752 -0.006521763607899482 0.030845634859621347 0.031467586215624226 -0.017261607237064925 11.117818512695443 0.035635347704773536 -0.01805524116234605 -0.018090230393346344 0.006557175652921501 0.016562034804980818 -0.024594990848483503 0.029948958083779564 0.00620554299710356 4.808752082883 -0.009991244651812638 -0.04700121450610734 -0.0329993690853939 -0.032484484763936665 0.04694848357401461 -0.010496071852902304 0.0020321048557825593 0.035985966075770176 -5.571143749207937 0.0360984188503903 -0.019778660621977785 -6.7222125824111165 -0.028512576361831948 0.004109875456164459 -6.696540906537163 -0.0071686613418836045 0.02438010367572782 -0.03040909976953664 -0.02465177726114541 -0.006982629088066672 8.009863084530203 3.4902319161936926 -19.173569442174806 -0.04770170304234362 10.388969603408688 0.021872932981245072 -5.578893405945025 -15.681418295526305 3.191943965850083 -0.01947269552759578 -0.0023974685171450003 -0.010206481066236181 -0.0026809535444238313 4.661391412917983 0.04642229969899486 12.454347069579976 -8.244577718451954 6.880439156422757 -0.0004911054520318253 46.378599953352385 0.04365785380397531 -4.305589730909362 -14.785534792233241 -3.821045694386169 -0.022798195187498732 0.021211620886060795 -0.038703102980326344 -0.03563710221050307 -10.761460206673043 0.013133969310361197 
0.013750157388926513 -0.017121203576936125 -0.02285038247448254 -0.033015879695062124 0.04567815415657638 -0.03019850074838487 -2.702733723519269 0.611554545889492 -0.7601303512230724 -0.9454270277514161 3.4669781026613413 0.3231125019225081 -0.8381411962481972 -2.0345232454771534 -2.845315662144092 -0.7506567667266392 0.30255133258281036 -1.0371438415479408 -2.3074101742910225 12.267163655384355 5.781251430606065 -0.109118016259245 0.02935243297989562 13.01589779377229 -1.8657239022663386 -14.650244457210457 1.0783191276011888 -2.8531104287444933 1.4517455728501185 -13.181264961327782 69.59625302469705 28.023571971508993 1.4763898546781185 10.718999219610996 -0.15376696764488337 83.08840518174263 18.5386638013797 -0.3814850000310404 -4.338704320242431 4.550391799473834 -0.13467246983105038 -1.622023243802579 0.0069302368452979135 0.03658264450096376 -56.20642896446477 -0.0336616389290508 0.019663202817270995 -56.26494615259016 -38.72332724171558 -0.014679181033036027 0.01931688802825505 0.023772650434727413 -0.04655481963988282 -0.011321896549826706 -0.04011212050510354 0.026119580424816397 0.049177796432487625 -36.73324581133923 0.04227228050932891 0.01976659762141275 -0.027640227791896923 -0.0273013477495123 -4.4085557454913226e-05 0.0013945596830961004 0.038122555680106265 -0.01041410977249663 -19.78220594638806 -0.013950176572989907 0.016547693706639256 0.015510095616026483 0.04007837306136864 -0.005331273937774602 -0.011882251047339112 0.012149308889104517 0.02150768764051133 24.07085227649481 0.03858309683672345 0.008746634643868647 28.885823331758843 -0.04375824818689469 -0.0007445344720834714 28.882435412709455 0.044060102302997735 0.03817258543880241 10.138740194692458 2.194386077940018 11.883526620236953 -67.2556369241348 15.338798027493672 -26.226564383302595 -15.6636019149373 -13.696333835794778 -75.85106375834255 -6.314706841334399 -2.874035420343536 1.0724986560862533 -0.48742487398651657 0.04401359201201201 -8.079404361009692 0.0304372704119531 -0.04832261883392609 44.58917307979491 -0.0026266295654031845 -0.034246190304928245 44.52511043540055 12.461627576986274 -0.017904918609303915 0.028971934428421244 -0.014465578860547309 0.03344533759980648 -0.03728297949550624 -0.013387311121564504 0.03939628247223505 -0.03252260711462829 11.144256816044123 -0.039641587296658995 -0.04676281892447037 -0.0020691111631963638 -0.010078572428208645 -0.0419159460542253 0.04869686482141126 0.03549876733809772 0.009357890468992613 4.819666942354465 -0.004998161577021683 -0.003765528883658052 -0.00307824979053751 -0.01576620871173978 -0.0479246111120145 0.03348898893114687 -0.04226169142199019 0.005156524250726621 -5.589857521910248 -0.0085997488883852 -0.017250905943309955 -6.678241774576422 -0.01667040726530729 0.02850504402840799 -6.703665645532449 -0.03411766262423499 -0.013395909362063804 0.025513620961460606 -0.027382376395724835 -0.021552090133898024 8.065028544163404 3.4977035612993324 -19.238258741569446 0.04228903491394288 10.397190493192243 0.02878701773050138 -5.661892324315671 -15.679964386547224 3.218944001101428 -0.025158338841825903 -0.021434230113694316 0.028548313395820736 -0.018757235156579233 4.737854538937006 -0.002659574753862015 12.464883495263463 -8.199673653396749 6.886583909731321 -0.001164179403365082 46.355310329545006 -0.04601205472093985 -4.28825779038002 -14.796567460533392 -3.7933759028201726 -0.03299094098208741 -0.046425767998730404 -0.0010103595448033521 -0.012369303654423435 -10.743913729621747 0.009830206134770961 
-0.0025246952548205063 0.010174107190094744 0.03262963226664476 0.012846875985810425 0.02575928536688962 0.037209685236236266 -2.6629433763167185 0.7138618237870369 -0.7948279690723651 -0.9859168179700688 3.5196518768403893 0.3095866934649481 -0.8797490943053371 -1.9898344205155665 -2.9795619495544505 -0.6864395438954809 0.3430429484682467 -1.0491123965136697 -2.235247099528117 12.186365546803927 5.540640310769712 -0.20970937089481673 0.039625585008820664 12.582709676418656 -1.8588538002634656 -14.784285546301831 1.0361206278787587 -2.9288682476660726 1.4987324658740968 -13.080428437313293 69.30625582158737 27.41746528696099 1.9674051837118474 11.798117891599965 0.06904317978502839 81.82455383577297 18.925405216628246 -0.4349193064022602 -4.507340962826514 4.5546028187411265 -0.1537160650857509 -1.6355927250285407 0.015052927083531566 0.035181325782703415 -56.252270396581636 -0.024586462923092425 -0.0012601297514028493 -56.218864411273984 -38.770711098838085 -0.022989263960014307 0.022608004089885732 -0.04239485572094821 -0.021267008100061185 -0.0106561655286767 -0.012335888917375656 -0.024618213686347926 -0.048127030905761065 -36.68319318217726 0.009153005136245665 -0.0014874008086363396 0.03866904295080235 -0.03388758632577162 -0.04942487595637696 -0.03478094742212845 -0.006193887646792993 -0.009242946352640906 -19.71036098252982 -0.008937565937921598 0.023469545205134133 -0.016596590829043478 0.021646750475047723 -0.03744970740904284 0.02886117398818595 -0.013725147659389406 -0.03724847646189764 24.082060621724082 0.0006349305948734808 0.015849166851497117 28.839134622307988 -0.031722873341787 -0.015674433770353404 28.841888987158605 -0.022652258882215687 0.0159942601766428 10.12602503759354 2.1551697943826262 11.739827336520358 -66.26298543421841 15.328782304670117 -27.396270153117733 -13.872557401359915 -14.182744396195215 -73.79851244146612 -6.848175460568648 -3.026509090007813 1.8730219209299137 -0.5105993717072265 0.022105464636792964 -8.10493216175237 0.026797099689572473 0.04843524763936981 44.60758228719878 0.02898922855466823 0.0475781678139627 44.56155954477864 12.410803092717043 -0.006160523049525316 -0.008394724355067596 0.013024420555099753 -0.014041958319849309 -0.02948480120206267 -0.006875601774429338 0.045800305724924335 -0.02620993044100675 11.097649032114047 -0.016963806761648898 -0.03241049800171167 0.030712526747086178 -0.03655846186864708 -0.026178161688752644 0.029309650148492097 0.012971679298078015 0.0028087487476450624 4.764388607326622 -0.0261950131112073 0.001884734346235678 -0.013321650060710313 0.047478022854534986 -0.03620769104323103 0.04077530380362443 0.04152638597030951 -0.0012968313427112396 -5.632853209816446 0.03458139348302022 -0.010822939678768354 -6.6791106289191 -0.04560253152029028 -0.04357871808101899 -6.683779332433362 0.023424145969300914 -0.004735230504355086 0.04105796025032865 -0.038933470671338996 -0.01907754458501275 8.090695455781104 3.462648365054185 -19.25091892248584 0.03143485799278121 10.423203835906325 0.05738806801098768 -5.664754089672924 -15.663623368990327 3.2082897089281706 0.015379016480853084 -0.046849537275180514 0.028214471660741935 0.0020534926609803482 4.7195925738812985 0.03143290809453745 12.44730630875427 -8.206902409318225 6.900120962383368 0.013580370805759903 46.38151393737653 0.029621137302224626 -4.3515669438985025 -14.782174824860657 -3.836517435735066 0.047673321358238444 0.010718071129854682 -0.03991331356686587 -0.035945886185888086 -10.705008774232434 -0.04418381743373939 
